# Blender v2.71 (sub 0) OBJ File: 'ship4.blend'
# www.blender.org
mtllib ship4.mtl
o Cube
v 1.149028 -1.000000 -0.905585
v 3.144684 -0.131463 -1.178678
v -0.833333 -0.833333 -0.833334
v 1.062935 0.953964 -1.207238
v 1.145373 -0.847266 -1.839757
v -0.872718 0.651119 -0.782539
v 0.000000 -0.850000 -1.008378
v 2.516850 -0.078128 -1.412432
v -0.818046 -0.100406 -0.868934
v -0.001613 0.837090 -0.956150
v 2.204352 0.777862 -1.022613
v 2.251386 -0.835804 -1.095410
v -0.104471 0.073950 -1.227688
v 3.129809 0.693114 -1.014207
v 3.212044 -0.875052 -0.911753
v 1.194704 0.714736 -1.992305
v 0.299640 -0.776438 -1.948304
v 1.048594 -0.127463 -2.167354
v 2.023097 -0.114388 -1.946064
v 0.260735 0.602122 -1.890766
v 2.082010 0.557594 -1.815675
v 1.988958 -0.658445 -1.853257
v 0.135240 -0.147201 -1.880746
v 3.826650 -0.090114 -1.020517
v 3.792934 0.783757 -1.050875
v 3.757225 -0.892772 -0.972082
v 4.027982 -0.095440 -0.762592
v 3.769105 -0.923850 -0.584191
v 3.767101 -0.551780 -1.007514
v 3.796434 0.441631 -1.015567
v 3.824924 0.846111 -0.561592
v 4.176962 0.372950 -0.544359
v 4.104161 -0.544087 -0.545507
v 4.717468 -0.170600 -0.631766
v 4.821640 0.259665 -0.598384
v 4.715646 -0.514390 -0.556397
v 5.207591 -0.165695 -0.551942
v 5.203779 0.168986 -0.552764
v 1.149028 -1.000000 0.905585
v 3.076954 -1.001987 0.000000
v 3.144684 -0.131463 1.178678
v -0.833333 -0.833333 0.833334
v 1.062935 0.953964 1.207238
v 3.188436 0.971836 0.000000
v 1.145373 -0.847266 1.839757
v -0.872718 0.651119 0.782539
v 0.905642 -1.000000 0.000000
v 0.000000 -0.850000 1.008378
v 3.822305 -0.902890 0.000000
v 2.331366 0.985408 0.000000
v 2.516850 -0.078128 1.412432
v -0.838401 -0.813490 0.000000
v 2.038080 -1.000000 0.000000
v -0.818046 -0.100406 0.868934
v 1.105867 1.109089 0.000000
v -0.001613 0.837090 0.956150
v 2.204352 0.777862 1.022613
v -0.908774 0.765719 0.000000
v 0.000000 -1.000000 0.000000
v -0.122233 0.997470 0.000000
v 4.235881 0.544033 0.000000
v 2.251386 -0.835804 1.095410
v -1.200583 0.023702 0.000000
v -0.104471 0.073950 1.227688
v 3.129809 0.693114 1.014207
v 3.212044 -0.875052 0.911753
v 1.194704 0.714736 1.992305
v 0.299640 -0.776438 1.948304
v 1.048594 -0.127463 2.167354
v 2.023097 -0.114388 1.946064
v 0.260735 0.602122 1.890766
v 2.082010 0.557594 1.815675
v 1.988958 -0.658445 1.853257
v 0.135240 -0.147201 1.880746
v 3.826650 -0.090114 1.020517
v 3.832370 0.892085 0.000000
v 5.198400 0.243682 0.000000
v 3.792934 0.783757 1.050875
v 3.757225 -0.892772 0.972082
v 4.139350 -0.673960 0.000000
v 4.027982 -0.095440 0.762592
v 3.769105 -0.923850 0.584191
v 3.767101 -0.551780 1.007514
v 3.796434 0.441631 1.015567
v 3.824924 0.846111 0.561592
v 4.176962 0.372950 0.544359
v 4.104161 -0.544087 0.545507
v 4.750690 0.365985 0.000000
v 4.747623 -0.571637 0.000000
v 4.717468 -0.170600 0.631766
v 4.821640 0.259665 0.598384
v 4.715646 -0.514390 0.556397
v 5.294204 -0.142596 0.000000
v 5.199670 -0.492878 0.000000
v 5.207591 -0.165695 0.551942
v 5.203779 0.168986 0.552764
vn 0.220900 0.167100 -0.960900
vn -0.013700 -0.990100 -0.139900
vn -0.040900 -0.103000 -0.993800
vn 0.125400 -0.984400 -0.123100
vn -0.926300 0.364300 -0.096000
vn -0.206200 -0.043200 -0.977600
vn -0.214900 -0.966000 -0.143700
vn -0.000000 -0.989100 -0.147100
vn 0.083200 -0.403500 -0.911200
vn -0.070300 -0.992500 -0.100100
vn -0.089100 0.980400 -0.175700
vn -0.279400 0.948100 -0.151700
vn -0.299900 0.037500 -0.953200
vn 0.118300 -0.979900 -0.160700
vn 0.098200 0.972800 -0.209600
vn 0.015300 0.963900 -0.265800
vn 0.209600 -0.381600 -0.900300
vn -0.041100 -0.996100 -0.078500
vn -0.867000 -0.375100 -0.328100
vn 0.277300 -0.451900 -0.847900
vn 0.047400 0.428300 -0.902400
vn -0.487600 0.350300 -0.799700
vn 0.730000 0.068000 -0.680100
vn 0.191600 0.937700 -0.290000
vn -0.942000 -0.174600 -0.286700
vn -0.918300 0.236700 -0.317300
vn 0.929500 -0.117900 -0.349500
vn -0.147000 0.939000 -0.310800
vn 0.651500 0.755300 -0.070500
vn -0.066900 0.093300 -0.993400
vn 0.122500 0.989000 -0.082600
vn 0.228800 -0.056900 -0.971800
vn 0.125800 -0.414700 -0.901200
vn 0.780300 0.042500 -0.623900
vn 0.997800 0.003400 -0.065700
vn 0.570400 -0.790000 -0.224900
vn 0.679200 -0.549700 -0.486400
vn 0.776100 -0.163000 -0.609200
vn 0.091100 -0.857200 -0.506800
vn 0.261400 0.956900 -0.126800
vn 0.310200 0.896800 -0.315400
vn 0.046400 -0.993400 -0.104900
vn 0.216400 0.162500 -0.962700
vn -0.001900 -0.988900 -0.148600
vn 0.072100 0.196300 -0.977900
vn 0.000000 -1.000000 0.000000
vn -0.916100 -0.020600 -0.400400
vn 0.224600 0.021800 -0.974200
vn -0.384200 -0.254100 -0.887600
vn -0.015000 -0.999600 0.023700
vn -0.126400 -0.991400 -0.034000
vn -0.299800 0.024100 -0.953700
vn -0.113700 -0.980600 -0.159900
vn -0.136600 0.983200 -0.121500
vn -0.241100 0.951700 -0.190000
vn -0.132000 0.223600 -0.965700
vn 0.204600 -0.935000 -0.289700
vn 0.171900 0.976300 -0.131600
vn 0.091100 0.973700 -0.208900
vn 0.022200 -0.169500 -0.985300
vn -0.005200 -0.990300 -0.138600
vn -0.999800 0.020500 -0.006600
vn 0.165300 -0.319900 -0.932900
vn 0.131800 -0.991000 0.023600
vn 0.356700 0.188900 -0.914900
vn -0.214300 0.096200 -0.972000
vn 0.865800 0.431500 -0.253400
vn 0.217000 0.943300 -0.251000
vn -0.926900 -0.208700 -0.311800
vn -0.911300 0.147500 -0.384400
vn 0.661900 -0.474700 -0.580200
vn -0.170800 0.943200 -0.285100
vn 0.778600 0.569700 -0.263300
vn 0.211500 0.356700 -0.910000
vn -0.041200 0.964000 -0.262600
vn 0.032700 -0.335100 -0.941600
vn -0.007000 -0.214100 -0.976800
vn -0.140800 0.983200 -0.116100
vn 0.787800 0.050500 -0.613900
vn -0.112600 -0.099500 -0.988600
vn 0.705300 0.506700 -0.495700
vn 0.751400 -0.658400 -0.044800
vn 0.998900 -0.032400 -0.033200
vn 0.803000 -0.120000 -0.583800
vn 0.998100 -0.018300 -0.059200
vn 0.129100 0.045600 -0.990600
vn 0.158400 0.975200 -0.154500
vn 0.161100 -0.957700 -0.238400
vn 0.956100 -0.258000 -0.139200
vn 0.970300 0.240700 -0.023100
vn 0.987800 0.010900 -0.155500
vn 0.220900 0.167100 0.960900
vn -0.013700 -0.990100 0.139900
vn -0.040900 -0.103000 0.993800
vn 0.125400 -0.984400 0.123100
vn -0.926300 0.364300 0.096000
vn -0.206200 -0.043200 0.977600
vn -0.214900 -0.966000 0.143700
vn -0.000000 -0.989100 0.147100
vn 0.083200 -0.403500 0.911200
vn -0.070300 -0.992500 0.100100
vn -0.089100 0.980400 0.175700
vn -0.279400 0.948100 0.151700
vn -0.299900 0.037500 0.953200
vn 0.118300 -0.979900 0.160700
vn 0.098200 0.972800 0.209600
vn 0.015300 0.963900 0.265800
vn 0.209600 -0.381600 0.900300
vn -0.041100 -0.996100 0.078500
vn -0.867000 -0.375100 0.328100
vn 0.277300 -0.451900 0.847900
vn 0.047400 0.428300 0.902400
vn -0.487600 0.350300 0.799700
vn 0.730000 0.068000 0.680100
vn 0.191600 0.937700 0.290000
vn -0.942000 -0.174600 0.286700
vn -0.918300 0.236700 0.317300
vn 0.929500 -0.117900 0.349500
vn -0.147000 0.939000 0.310800
vn 0.651500 0.755300 0.070500
vn -0.066900 0.093300 0.993400
vn 0.122500 0.989000 0.082600
vn 0.228800 -0.056900 0.971800
vn 0.125800 -0.414700 0.901200
vn 0.780300 0.042500 0.623900
vn 0.997800 0.003400 0.065700
vn 0.570400 -0.790000 0.224900
vn 0.679200 -0.549700 0.486400
vn 0.776100 -0.163000 0.609200
vn 0.091100 -0.857200 0.506800
vn 0.261400 0.956900 0.126800
vn 0.310200 0.896800 0.315400
vn 0.046400 -0.993400 0.104900
vn 0.216400 0.162500 0.962700
vn -0.001900 -0.988900 0.148600
vn 0.072100 0.196300 0.977900
vn -0.916100 -0.020600 0.400400
vn 0.224600 0.021800 0.974200
vn -0.384200 -0.254100 0.887600
vn -0.015000 -0.999600 -0.023700
vn -0.126400 -0.991400 0.034000
vn -0.299800 0.024100 0.953700
vn -0.113700 -0.980600 0.159900
vn -0.136600 0.983200 0.121500
vn -0.241100 0.951700 0.190000
vn -0.132000 0.223600 0.965700
vn 0.204600 -0.935000 0.289700
vn 0.171900 0.976300 0.131600
vn 0.091100 0.973700 0.208900
vn 0.022200 -0.169500 0.985300
vn -0.005200 -0.990300 0.138600
vn -0.999800 0.020500 0.006600
vn 0.165300 -0.319900 0.932900
vn 0.131800 -0.991000 -0.023600
vn 0.356700 0.188900 0.914900
vn -0.214300 0.096200 0.972000
vn 0.865800 0.431500 0.253400
vn 0.217000 0.943300 0.251000
vn -0.926900 -0.208700 0.311800
vn -0.911300 0.147500 0.384400
vn 0.661900 -0.474700 0.580200
vn -0.170800 0.943200 0.285100
vn 0.778600 0.569700 0.263300
vn 0.211500 0.356700 0.910000
vn -0.041200 0.964000 0.262600
vn 0.032700 -0.335100 0.941600
vn -0.007000 -0.214100 0.976800
vn -0.140800 0.983200 0.116100
vn 0.787800 0.050500 0.613900
vn -0.112600 -0.099500 0.988600
vn 0.705300 0.506700 0.495700
vn 0.751400 -0.658400 0.044800
vn 0.998900 -0.032400 0.033200
vn 0.803000 -0.120000 0.583800
vn 0.998100 -0.018300 0.059200
vn 0.160800 -0.000600 0.987000
vn 0.158400 0.975200 0.154500
vn 0.161100 -0.957700 0.238400
vn 0.956100 -0.258000 0.139200
vn 0.970300 0.240700 0.023100
vn 0.987800 0.010900 0.155500
vn 0.145000 -0.832200 -0.535200
vn 0.244500 0.959300 -0.141500
vn 0.160800 -0.000600 -0.987000
vn 0.145000 -0.832200 0.535200
vn 0.244500 0.959300 0.141500
vn 0.129100 0.045600 0.990600
usemtl Material
s off
f 16//1 21//1 19//1
f 12//2 15//2 40//2
f 14//3 25//3 30//3
f 1//4 12//4 53//4
f 63//5 58//5 6//5
f 7//6 3//6 9//6
f 7//7 59//7 52//7
f 47//8 59//8 7//8
f 18//9 5//9 17//9
f 7//10 17//10 5//10
f 10//11 60//11 55//11
f 6//12 58//12 60//12
f 18//13 23//13 20//13
f 12//14 1//14 5//14
f 55//15 50//15 11//15
f 50//16 44//16 14//16
f 5//17 18//17 19//17
f 15//18 26//18 28//18
f 52//19 63//19 9//19
f 12//20 8//20 2//20
f 8//21 11//21 14//21
f 10//22 13//22 9//22
f 8//23 19//23 21//23
f 4//24 11//24 21//24
f 7//25 13//25 23//25
f 13//26 10//26 20//26
f 12//27 22//27 19//27
f 4//28 16//28 20//28
f 31//29 76//29 61//29
f 32//30 35//30 34//30
f 44//31 76//31 31//31
f 2//32 24//32 29//32
f 33//33 27//33 34//33
f 30//34 32//34 27//34
f 30//35 25//35 31//35
f 33//36 80//36 49//36
f 29//37 33//37 28//37
f 24//38 27//38 33//38
f 34//39 37//39 94//39
f 88//40 77//40 38//40
f 32//41 61//41 88//41
f 33//42 36//42 89//42
f 18//43 16//43 19//43
f 53//44 12//44 40//44
f 14//45 30//45 2//45
f 47//46 1//46 53//46
f 9//47 63//47 6//47
f 30//48 24//48 2//48
f 13//49 7//49 9//49
f 3//50 7//50 52//50
f 1//51 47//51 7//51
f 23//52 18//52 17//52
f 1//53 7//53 5//53
f 4//54 10//54 55//54
f 10//55 6//55 60//55
f 16//56 18//56 20//56
f 22//57 12//57 5//57
f 4//58 55//58 11//58
f 11//59 50//59 14//59
f 22//60 5//60 19//60
f 15//61 28//61 40//61
f 3//62 52//62 9//62
f 15//63 12//63 2//63
f 28//64 49//64 40//64
f 2//65 8//65 14//65
f 6//66 10//66 9//66
f 11//67 8//67 21//67
f 16//68 4//68 21//68
f 17//69 7//69 23//69
f 23//70 13//70 20//70
f 8//71 12//71 19//71
f 10//72 4//72 20//72
f 32//73 31//73 61//73
f 27//74 32//74 34//74
f 44//75 31//75 14//75
f 2//76 29//76 15//76
f 36//77 33//77 34//77
f 31//78 25//78 14//78
f 24//79 30//79 27//79
f 29//80 26//80 15//80
f 32//81 30//81 31//81
f 28//82 33//82 49//82
f 26//83 29//83 28//83
f 29//84 24//84 33//84
f 36//85 34//85 89//85
f 34//86 35//86 38//86
f 35//87 32//87 88//87
f 80//88 33//88 89//88
f 37//89 93//89 94//89
f 38//90 77//90 93//90
f 37//91 38//91 93//91
f 67//92 70//92 72//92
f 62//93 40//93 66//93
f 65//94 84//94 78//94
f 39//95 53//95 62//95
f 63//96 46//96 58//96
f 48//97 54//97 42//97
f 48//98 52//98 59//98
f 47//99 48//99 59//99
f 69//100 68//100 45//100
f 48//101 45//101 68//101
f 56//102 55//102 60//102
f 46//103 60//103 58//103
f 69//104 71//104 74//104
f 62//105 45//105 39//105
f 55//106 57//106 50//106
f 50//107 65//107 44//107
f 45//108 70//108 69//108
f 66//109 82//109 79//109
f 52//110 54//110 63//110
f 62//111 41//111 51//111
f 51//112 65//112 57//112
f 56//113 54//113 64//113
f 51//114 72//114 70//114
f 43//115 72//115 57//115
f 48//116 74//116 64//116
f 64//117 71//117 56//117
f 62//118 70//118 73//118
f 43//119 71//119 67//119
f 85//120 61//120 76//120
f 86//121 90//121 91//121
f 44//122 85//122 76//122
f 41//123 83//123 75//123
f 87//124 90//124 81//124
f 84//125 81//125 86//125
f 84//126 85//126 78//126
f 87//127 49//127 80//127
f 83//128 82//128 87//128
f 75//129 87//129 81//129
f 94//130 95//130 90//130
f 96//131 77//131 88//131
f 86//132 88//132 61//132
f 87//133 89//133 92//133
f 69//134 70//134 67//134
f 53//135 40//135 62//135
f 65//136 41//136 84//136
f 47//46 53//46 39//46
f 54//137 46//137 63//137
f 84//138 41//138 75//138
f 64//139 54//139 48//139
f 42//140 52//140 48//140
f 39//141 48//141 47//141
f 74//142 68//142 69//142
f 39//143 45//143 48//143
f 43//144 55//144 56//144
f 56//145 60//145 46//145
f 67//146 71//146 69//146
f 73//147 45//147 62//147
f 43//148 57//148 55//148
f 57//149 65//149 50//149
f 73//150 70//150 45//150
f 66//151 40//151 82//151
f 42//152 54//152 52//152
f 66//153 41//153 62//153
f 82//154 40//154 49//154
f 41//155 65//155 51//155
f 46//156 54//156 56//156
f 57//157 72//157 51//157
f 67//158 72//158 43//158
f 68//159 74//159 48//159
f 74//160 71//160 64//160
f 51//161 70//161 62//161
f 56//162 71//162 43//162
f 86//163 61//163 85//163
f 81//164 90//164 86//164
f 44//165 65//165 85//165
f 41//166 66//166 83//166
f 92//167 90//167 87//167
f 85//168 65//168 78//168
f 75//169 81//169 84//169
f 83//170 66//170 79//170
f 86//171 85//171 84//171
f 82//172 49//172 87//172
f 79//173 82//173 83//173
f 83//174 87//174 75//174
f 92//175 89//175 90//175
f 90//176 95//176 96//176
f 91//177 88//177 86//177
f 80//178 89//178 87//178
f 95//179 94//179 93//179
f 96//180 93//180 77//180
f 95//181 93//181 96//181
f 89//182 34//182 94//182
f 35//183 88//183 38//183
f 37//184 34//184 38//184
f 89//185 94//185 90//185
f 91//186 96//186 88//186
f 91//187 90//187 96//187
