# Blender v2.71 (sub 0) OBJ File: 'ship1.blend'
# www.blender.org
mtllib ship1.mtl
o Cube
v 1.376814 1.137826 -0.740568
v 0.946551 0.922229 0.540961
v 0.990127 0.015294 -0.959597
v 1.163880 0.089839 2.276287
v 2.131654 0.083711 0.263105
v 0.838442 0.561698 -1.082744
v 0.742470 0.541497 1.181702
v 1.330464 1.128045 -0.073120
v 1.105921 -0.338048 -0.788639
v 0.894243 -0.186849 1.536753
v 1.470672 1.307316 -0.425171
v 0.794766 0.841904 -1.005435
v 0.538766 0.881296 1.012683
v 0.933122 0.997593 0.046293
v 2.217638 -0.089266 0.985310
v 1.666691 -0.062845 -0.484537
v 1.095890 -0.299410 0.011094
v 1.150585 0.458333 -0.040597
v 0.424984 0.013594 3.355614
v 0.481209 0.079914 -1.436769
v 1.086699 0.514767 0.528528
v 0.715376 0.967286 0.468438
v 0.874980 0.945645 -0.430391
v 1.082472 -0.274321 0.747382
v 1.075090 -0.406767 -0.540910
v 1.206685 0.512659 -0.446168
v 0.469899 -0.284663 1.101261
v 0.474083 0.494944 2.164900
v 0.505562 0.446010 -1.376098
v 0.577301 -0.375296 -0.966839
v 0.777581 0.500000 0.875000
v 1.000000 0.500000 0.125000
v 0.950573 0.500000 0.500000
v 1.000000 0.500000 -0.125000
v 1.000000 0.500000 -0.333333
v 0.802294 0.500000 0.833334
v 1.000000 0.500000 0.166667
v 0.950573 0.500000 0.500000
v -1.376814 1.137826 -0.740568
v -0.946551 0.922229 0.540961
v -0.990127 0.015294 -0.959597
v -1.163880 0.089839 2.276287
v 0.000000 0.713925 -1.041272
v 0.000000 0.829100 1.236669
v -2.131654 0.083711 0.263105
v 0.000000 0.044567 3.777788
v 0.000000 -0.071916 -1.436976
v -0.838442 0.561698 -1.082744
v -0.742470 0.541497 1.181702
v -1.330464 1.128045 -0.073120
v -1.105921 -0.338048 -0.788639
v -0.894243 -0.186849 1.536753
v -1.470672 1.307316 -0.425171
v -0.794766 0.841904 -1.005435
v -0.538766 0.881296 1.012683
v 0.000000 0.860452 0.301364
v 0.000000 0.734056 -0.450936
v -0.933122 0.997593 0.046293
v -2.217638 -0.089266 0.985310
v -1.666691 -0.062845 -0.484537
v -1.095890 -0.299410 0.011094
v -1.150585 0.458333 -0.040597
v -0.424984 0.013594 3.355614
v 0.000000 -0.256188 1.219621
v 0.000000 0.447873 3.041646
v -0.481209 0.079914 -1.436769
v 0.000000 0.410820 -1.427364
v 0.000000 -0.388480 -0.750396
v -1.086699 0.514767 0.528528
v -0.715376 0.967286 0.468438
v -0.874980 0.945645 -0.430391
v -1.082472 -0.274321 0.747382
v -1.075090 -0.406767 -0.540910
v -1.206685 0.512659 -0.446168
v -0.469899 -0.284663 1.101261
v -0.474083 0.494944 2.164900
v -0.505562 0.446010 -1.376098
v -0.577301 -0.375296 -0.966839
v -0.777581 0.500000 0.875000
v -1.000000 0.500000 0.125000
v -0.950573 0.500000 0.500000
v -1.000000 0.500000 -0.125000
v -1.000000 0.500000 -0.333333
v -0.802294 0.500000 0.833334
v -1.000000 0.500000 0.166667
v -0.950573 0.500000 0.500000
vn 0.214600 -0.679200 -0.701800
vn -0.268400 0.879600 -0.392800
vn -0.228400 0.960100 -0.161300
vn 0.354700 -0.934200 -0.037400
vn 0.043600 -0.992200 0.116700
vn 0.041200 0.946600 0.319700
vn -0.005900 0.019900 -0.999800
vn 0.436800 0.878300 0.194300
vn 0.369900 0.927700 -0.050500
vn -0.507500 0.832600 0.221900
vn -0.339200 0.934500 -0.107900
vn -0.516700 0.852200 -0.081700
vn -0.098300 0.994100 -0.045400
vn 0.130700 -0.981500 0.139900
vn 0.544700 -0.213800 -0.810900
vn 0.305900 0.937200 0.167800
vn 0.862600 0.129200 -0.489100
vn -0.098300 0.782800 -0.614500
vn -0.066700 -0.997500 -0.024800
vn 0.382600 -0.902400 0.198100
vn 0.541400 0.771500 0.334200
vn 0.478200 0.861400 0.171300
vn 0.570300 0.613600 0.546200
vn 0.028200 0.672100 -0.739900
vn 0.569900 0.299900 -0.765000
vn -0.155200 0.987300 0.033100
vn -0.135000 -0.899800 -0.414900
vn 0.322600 -0.324500 -0.889200
vn 0.267600 0.294800 -0.917300
vn 0.430600 0.830400 0.353500
vn 0.476000 0.771300 0.422600
vn 0.091600 -0.987000 0.132400
vn 0.540900 0.478500 -0.691700
vn 0.652600 0.555900 -0.514800
vn 0.507300 -0.844600 -0.171200
vn 0.986400 -0.110300 0.121700
vn 0.685500 0.026300 -0.727600
vn -0.035700 0.988800 0.144700
vn 0.088800 0.157100 -0.983600
vn 0.389800 -0.884000 -0.258100
vn -0.150200 0.976400 -0.155200
vn 0.274100 0.940900 0.198700
vn -0.027200 -0.991100 0.130600
vn 0.486300 -0.861000 0.149100
vn 0.000000 1.000000 0.000000
vn 0.765600 -0.432600 -0.476200
vn -0.266700 -0.963800 -0.000000
vn 0.105000 -0.994400 0.013800
vn 0.036900 -0.998700 0.034700
vn 0.069900 0.931900 0.356000
vn 0.000000 -1.000000 0.000000
vn 0.128300 0.972300 0.195200
vn 0.153300 -0.987500 0.036400
vn 0.043200 -0.997600 0.054500
vn -0.168000 0.982000 -0.086500
vn 0.957100 -0.264300 0.118400
vn -0.146600 0.989200 -0.004600
vn 0.532500 -0.550900 -0.642600
vn 0.970200 -0.233900 0.063900
vn 0.642400 0.083500 -0.761800
vn 0.775600 0.584000 0.239400
vn 0.150700 -0.957300 -0.246800
vn 0.034500 -0.997200 0.067000
vn -0.328300 0.942500 -0.062700
vn -0.187300 -0.979300 0.076100
vn 0.780700 0.251100 0.572200
vn 0.853900 0.280300 0.438500
vn -0.226500 -0.954500 0.194200
vn -0.012700 -0.990800 -0.134500
vn -0.234200 0.971600 -0.033100
vn 0.187500 -0.940500 0.283500
vn 0.092600 -0.987000 0.131500
vn 0.831700 -0.553000 0.049700
vn -0.220300 0.963000 -0.155500
vn 0.369100 0.912800 0.174700
vn 0.416300 0.887600 0.197400
vn -0.214600 -0.679200 -0.701800
vn 0.268400 0.879600 -0.392800
vn 0.228400 0.960100 -0.161300
vn -0.354700 -0.934200 -0.037400
vn -0.043600 -0.992200 0.116700
vn -0.041200 0.946600 0.319700
vn 0.005900 0.019900 -0.999800
vn -0.436800 0.878300 0.194300
vn -0.369900 0.927700 -0.050500
vn 0.507500 0.832600 0.221900
vn 0.339200 0.934500 -0.107900
vn 0.516700 0.852200 -0.081700
vn 0.098300 0.994100 -0.045400
vn -0.130700 -0.981500 0.139900
vn -0.544700 -0.213800 -0.810900
vn -0.305900 0.937200 0.167800
vn -0.862600 0.129200 -0.489100
vn 0.098300 0.782800 -0.614500
vn 0.066700 -0.997500 -0.024800
vn -0.382600 -0.902400 0.198100
vn -0.541400 0.771500 0.334200
vn -0.478200 0.861400 0.171300
vn -0.570300 0.613600 0.546200
vn -0.028200 0.672100 -0.739900
vn -0.569900 0.299900 -0.765000
vn 0.155200 0.987300 0.033100
vn 0.135000 -0.899800 -0.414900
vn -0.322600 -0.324500 -0.889200
vn -0.267600 0.294800 -0.917300
vn -0.430600 0.830400 0.353500
vn -0.476000 0.771300 0.422600
vn -0.091600 -0.987000 0.132400
vn -0.540900 0.478500 -0.691700
vn -0.652600 0.555900 -0.514800
vn -0.507300 -0.844600 -0.171200
vn -0.986400 -0.110300 0.121700
vn -0.685500 0.026300 -0.727600
vn 0.035700 0.988800 0.144700
vn -0.088800 0.157100 -0.983600
vn -0.389800 -0.884000 -0.258100
vn 0.150200 0.976400 -0.155200
vn -0.274100 0.940900 0.198700
vn 0.027200 -0.991100 0.130600
vn -0.486300 -0.861000 0.149100
vn -0.765600 -0.432600 -0.476200
vn 0.266700 -0.963800 0.000000
vn -0.105000 -0.994400 0.013800
vn -0.036900 -0.998700 0.034700
vn -0.069900 0.931900 0.356000
vn -0.128300 0.972300 0.195200
vn -0.153300 -0.987500 0.036400
vn -0.043200 -0.997600 0.054500
vn 0.168000 0.982000 -0.086500
vn -0.957100 -0.264300 0.118400
vn 0.146600 0.989200 -0.004600
vn -0.532500 -0.550900 -0.642600
vn -0.970200 -0.233900 0.063900
vn -0.642400 0.083500 -0.761800
vn -0.775600 0.584000 0.239400
vn -0.150700 -0.957300 -0.246800
vn -0.034500 -0.997200 0.067000
vn 0.328300 0.942500 -0.062700
vn 0.187300 -0.979300 0.076100
vn -0.780700 0.251100 0.572200
vn -0.853900 0.280300 0.438500
vn 0.226500 -0.954500 0.194200
vn 0.012700 -0.990800 -0.134500
vn 0.234200 0.971600 -0.033100
vn -0.187500 -0.940500 0.283500
vn -0.092600 -0.987000 0.131500
vn -0.831700 -0.553000 0.049700
vn 0.220300 0.963000 -0.155500
vn -0.369100 0.912800 0.174700
vn -0.416300 0.887600 0.197400
usemtl Material
s off
f 20//1 30//1 47//1
f 1//2 12//2 11//2
f 23//3 57//3 56//3
f 16//4 5//4 17//4
f 19//5 46//5 64//5
f 28//6 13//6 44//6
f 20//7 47//7 67//7
f 21//8 7//8 4//8
f 5//9 18//9 21//9
f 8//10 11//10 23//10
f 14//11 22//11 8//11
f 12//12 23//12 11//12
f 21//13 33//13 31//13
f 10//14 24//14 15//14
f 9//15 3//15 16//15
f 26//16 18//16 5//16
f 3//17 6//17 26//17
f 43//18 12//18 67//18
f 27//19 64//19 17//19
f 10//20 4//20 19//20
f 19//21 28//21 65//21
f 4//22 7//22 28//22
f 7//23 2//23 13//23
f 12//24 29//24 67//24
f 6//25 29//25 12//25
f 22//26 56//26 44//26
f 30//27 68//27 47//27
f 3//28 9//28 30//28
f 1//29 6//29 12//29
f 19//30 4//30 28//30
f 46//31 19//31 65//31
f 27//32 10//32 19//32
f 16//33 3//33 26//33
f 16//34 26//34 5//34
f 25//35 9//35 16//35
f 18//36 26//36 21//36
f 6//37 3//37 20//37
f 13//38 22//38 44//38
f 29//39 20//39 67//39
f 17//40 5//40 15//40
f 12//41 43//41 23//41
f 65//42 28//42 44//42
f 27//43 19//43 64//43
f 25//44 16//44 17//44
f 32//45 33//45 37//45
f 6//46 1//46 26//46
f 18//47 34//47 35//47
f 21//48 33//48 32//48
f 24//49 27//49 17//49
f 2//50 8//50 22//50
f 33//51 38//51 36//51
f 33//45 38//45 37//45
f 2//52 22//52 13//52
f 24//53 17//53 15//53
f 17//54 68//54 30//54
f 14//55 23//55 56//55
f 31//51 33//51 36//51
f 26//56 8//56 21//56
f 22//57 14//57 56//57
f 20//58 3//58 30//58
f 1//59 8//59 26//59
f 29//60 6//60 20//60
f 28//61 7//61 13//61
f 9//62 25//62 30//62
f 17//63 64//63 68//63
f 14//64 8//64 23//64
f 18//65 21//65 32//65
f 8//66 2//66 21//66
f 7//67 21//67 2//67
f 25//68 17//68 30//68
f 26//69 18//69 35//69
f 43//70 57//70 23//70
f 4//71 10//71 15//71
f 24//72 10//72 27//72
f 1//73 11//73 8//73
f 7//74 21//74 31//74
f 4//75 15//75 5//75
f 21//76 4//76 5//76
f 66//77 47//77 78//77
f 39//78 53//78 54//78
f 71//79 56//79 57//79
f 60//80 61//80 45//80
f 63//81 64//81 46//81
f 76//82 44//82 55//82
f 66//83 67//83 47//83
f 69//84 42//84 49//84
f 45//85 69//85 62//85
f 50//86 71//86 53//86
f 58//87 50//87 70//87
f 54//88 53//88 71//88
f 69//89 79//89 81//89
f 52//90 59//90 72//90
f 51//91 60//91 41//91
f 74//92 45//92 62//92
f 41//93 74//93 48//93
f 43//94 67//94 54//94
f 75//95 61//95 64//95
f 52//96 63//96 42//96
f 63//97 65//97 76//97
f 42//98 76//98 49//98
f 49//99 55//99 40//99
f 54//100 67//100 77//100
f 48//101 54//101 77//101
f 70//102 44//102 56//102
f 78//103 47//103 68//103
f 41//104 78//104 51//104
f 39//105 54//105 48//105
f 63//106 76//106 42//106
f 46//107 65//107 63//107
f 75//108 63//108 52//108
f 60//109 74//109 41//109
f 60//110 45//110 74//110
f 73//111 60//111 51//111
f 62//112 69//112 74//112
f 48//113 66//113 41//113
f 55//114 44//114 70//114
f 77//115 67//115 66//115
f 61//116 59//116 45//116
f 54//117 71//117 43//117
f 65//118 44//118 76//118
f 75//119 64//119 63//119
f 73//120 61//120 60//120
f 80//45 85//45 81//45
f 48//121 74//121 39//121
f 62//122 83//122 82//122
f 69//123 80//123 81//123
f 72//124 61//124 75//124
f 40//125 70//125 50//125
f 81//51 84//51 86//51
f 81//45 85//45 86//45
f 40//126 55//126 70//126
f 72//127 59//127 61//127
f 61//128 78//128 68//128
f 58//129 56//129 71//129
f 79//51 84//51 81//51
f 74//130 69//130 50//130
f 70//131 56//131 58//131
f 66//132 78//132 41//132
f 39//133 74//133 50//133
f 77//134 66//134 48//134
f 76//135 55//135 49//135
f 51//136 78//136 73//136
f 61//137 68//137 64//137
f 58//138 71//138 50//138
f 62//139 80//139 69//139
f 50//140 69//140 40//140
f 49//141 40//141 69//141
f 73//142 78//142 61//142
f 74//143 83//143 62//143
f 43//144 71//144 57//144
f 42//145 59//145 52//145
f 72//146 75//146 52//146
f 39//147 50//147 53//147
f 49//148 79//148 69//148
f 42//149 45//149 59//149
f 69//150 45//150 42//150
