# Blender v2.71 (sub 0) OBJ File: 'ship5.blend'
# www.blender.org
mtllib ship5.mtl
o Cube
v -2.127465 0.642509 -1.253669
v -1.948391 1.016330 -1.349720
v -2.544777 1.035830 -0.808201
v -2.624402 0.928774 -0.425072
v -0.674560 1.052915 -1.278917
v -2.281130 0.710191 -0.890670
v -0.856567 -0.439936 -4.718397
v 3.337589 -0.218603 -1.041093
v -0.267326 0.710093 -0.885927
v -1.780761 0.492922 -3.432614
v -2.284674 0.984672 -0.661695
v -2.075664 0.474647 -0.964417
v 3.094750 -0.447478 -1.171032
v 0.643893 -0.126773 -1.946949
v 0.803959 -0.096642 -3.358368
v -2.308036 0.714993 -2.196010
v -1.522526 0.104606 -2.044253
v -0.575562 -0.021011 -2.157902
v 1.537456 0.408936 -1.753592
v -2.332629 0.112352 -2.325419
v 1.970868 -0.332867 -1.894572
v 0.112857 -0.386996 -4.417702
v 0.213404 0.481750 -2.977806
v 1.574305 0.228510 -2.816697
v -0.935906 -0.258847 -4.916677
v -2.252971 0.022064 -3.305040
v 1.489630 -0.277304 -2.748975
v 0.089906 -0.233772 -4.936707
v 1.473764 -0.241812 -0.918569
v -0.452975 0.256287 -0.918569
v 0.459226 -0.007732 -0.408253
v 3.004723 -0.206460 -0.622799
v 3.306635 -0.481013 -0.682826
v -2.127465 0.642509 1.253669
v -1.948391 1.016330 1.349720
v -2.544777 1.035830 0.808201
v -2.624402 0.928774 0.425072
v 2.322062 0.144847 0.000000
v -0.674560 1.052915 1.278917
v -2.281130 0.710191 0.890670
v -0.856567 -0.439936 4.718397
v 3.337589 -0.218603 1.041093
v -0.267326 0.710093 0.885927
v 3.487228 -0.435158 0.000000
v -1.780761 0.492922 3.432614
v -2.284674 0.984672 0.661695
v -2.075664 0.474647 0.964417
v 3.094750 -0.447478 1.171032
v 0.643893 -0.126773 1.946949
v 0.803959 -0.096642 3.358368
v -1.730433 0.631270 0.000000
v -2.308036 0.714993 2.196010
v -1.522526 0.104606 2.044253
v -0.575562 -0.021011 2.157902
v 1.537456 0.408936 1.753592
v -2.332629 0.112352 2.325419
v 1.970868 -0.332867 1.894572
v 0.112857 -0.386996 4.417702
v 0.213404 0.481750 2.977806
v 1.574305 0.228510 2.816697
v -0.935906 -0.258847 4.916677
v -2.252971 0.022064 3.305040
v 1.489630 -0.277304 2.748975
v 0.089906 -0.233772 4.936707
v 0.427368 -0.172958 0.000000
v 1.390978 -0.320598 0.000000
v 1.473764 -0.241812 0.918569
v -0.452975 0.256287 0.918569
v -0.535761 0.177500 0.000000
v 0.459226 -0.007732 0.408253
v 3.273746 -0.264731 0.000000
v 3.004723 -0.206460 0.622799
v 3.306635 -0.481013 0.682826
vn 0.637700 0.594100 0.490200
vn 0.041900 0.986300 -0.159300
vn -0.252500 -0.658200 0.709200
vn 0.334200 0.854000 0.398700
vn 0.172200 0.823700 0.540200
vn -0.216600 -0.975200 -0.045400
vn 0.164600 0.920700 0.353800
vn -0.014900 0.943900 -0.329800
vn -0.698300 0.590900 -0.403900
vn -0.030400 0.999100 0.031100
vn -0.070900 -0.996000 -0.054200
vn -0.250000 -0.965800 0.068700
vn -0.137100 -0.988900 0.056400
vn -0.099500 -0.966000 0.238700
vn 0.517100 0.441500 -0.733300
vn 0.084300 0.934200 -0.346600
vn 0.023900 0.645100 -0.763700
vn 0.846500 -0.207400 -0.490300
vn -0.106200 -0.963500 0.245600
vn -0.652000 -0.676100 0.343200
vn 0.209600 0.677700 -0.704800
vn -0.615500 -0.688900 -0.382900
vn 0.140500 -0.947900 -0.286000
vn 0.198600 0.967400 -0.157300
vn -0.030700 0.884500 -0.465500
vn 0.663700 -0.708900 -0.238600
vn 0.192800 0.979300 0.061200
vn -0.107500 -0.986100 0.127000
vn 0.721200 0.404800 0.562100
vn -0.007800 -0.980200 0.197700
vn -0.912700 -0.049900 0.405600
vn -0.775200 -0.548000 -0.314200
vn -0.784400 -0.578300 -0.224200
vn -0.768500 -0.612900 -0.183600
vn -0.324900 -0.855300 -0.403700
vn -0.249900 -0.966800 -0.053400
vn -0.045900 -0.840800 -0.539500
vn -0.895200 0.392800 0.210400
vn -0.721600 0.173500 -0.670200
vn -0.154300 -0.987800 0.022700
vn 0.119700 0.913900 0.387800
vn -0.994500 0.059100 -0.086300
vn 0.131900 0.985200 0.109800
vn -0.155800 -0.985200 0.071500
vn -0.072400 -0.980700 0.181700
vn -0.197600 -0.953900 0.225700
vn 0.395700 0.098500 -0.913100
vn -0.246700 -0.954400 -0.168300
vn 0.157900 0.981000 -0.112400
vn 0.857200 0.511700 -0.057100
vn -0.122900 -0.966300 0.226300
vn -0.376300 -0.914000 0.151700
vn 0.619400 -0.205200 -0.757800
vn -0.638300 0.476300 -0.604700
vn 0.004800 -0.737400 -0.675400
vn 0.551700 0.771600 -0.316600
vn 0.114600 0.954800 0.274200
vn 0.359900 -0.932800 0.020900
vn -0.115800 -0.985500 0.124300
vn 0.033800 0.960700 0.275500
vn -0.664300 0.129000 -0.736200
vn -0.799200 -0.553100 -0.235200
vn -0.279600 -0.960100 0.003100
vn -0.249200 -0.964000 0.093300
vn -0.156600 -0.978100 0.137300
vn 0.609600 0.763700 -0.212500
vn 0.635900 0.744100 -0.205100
vn 0.393900 0.915300 -0.084500
vn 0.331300 0.943500 -0.006200
vn 0.730600 -0.640000 -0.238100
vn 0.637700 0.594100 -0.490200
vn 0.041900 0.986300 0.159300
vn -0.252500 -0.658200 -0.709200
vn 0.334200 0.854000 -0.398700
vn 0.172200 0.823700 -0.540200
vn -0.216600 -0.975200 0.045400
vn 0.164600 0.920700 -0.353800
vn -0.014900 0.943900 0.329800
vn -0.698300 0.590900 0.403900
vn -0.030400 0.999100 -0.031100
vn -0.070900 -0.996000 0.054200
vn -0.250000 -0.965800 -0.068700
vn -0.137100 -0.988900 -0.056400
vn -0.099500 -0.966000 -0.238700
vn 0.517100 0.441500 0.733300
vn 0.000000 0.000000 1.000000
vn 0.084300 0.934200 0.346600
vn 0.023900 0.645100 0.763700
vn 0.846500 -0.207400 0.490300
vn -0.106200 -0.963500 -0.245600
vn -0.652000 -0.676100 -0.343200
vn 0.209600 0.677700 0.704800
vn -0.615500 -0.688900 0.382900
vn 0.140500 -0.947900 0.286000
vn 0.198600 0.967400 0.157300
vn -0.030700 0.884500 0.465500
vn 0.663700 -0.708900 0.238600
vn 0.192800 0.979300 -0.061200
vn -0.107500 -0.986100 -0.127000
vn 0.721200 0.404800 -0.562100
vn -0.007800 -0.980200 -0.197700
vn -0.912700 -0.049900 -0.405600
vn -0.775200 -0.548000 0.314200
vn -0.784400 -0.578300 0.224200
vn -0.768500 -0.612900 0.183600
vn -0.324900 -0.855300 0.403700
vn -0.249900 -0.966800 0.053400
vn -0.045900 -0.840800 0.539500
vn -0.895200 0.392800 -0.210400
vn -0.721600 0.173500 0.670200
vn -0.154300 -0.987800 -0.022700
vn 0.119700 0.913900 -0.387800
vn -0.994500 0.059100 0.086300
vn 0.131900 0.985200 -0.109800
vn -0.155800 -0.985200 -0.071500
vn -0.072400 -0.980700 -0.181700
vn -0.197600 -0.953900 -0.225700
vn 0.395700 0.098500 0.913100
vn -0.246700 -0.954400 0.168300
vn 0.157900 0.981000 0.112400
vn 0.857200 0.511700 0.057100
vn -0.122900 -0.966300 -0.226300
vn -0.376300 -0.914000 -0.151700
vn 0.619400 -0.205200 0.757800
vn -0.638300 0.476300 0.604700
vn 0.004800 -0.737400 0.675400
vn 0.551700 0.771600 0.316600
vn 0.114600 0.954800 -0.274200
vn 0.359900 -0.932800 -0.020900
vn -0.115800 -0.985500 -0.124300
vn 0.033800 0.960700 -0.275500
vn -0.664300 0.129000 0.736200
vn -0.799200 -0.553100 0.235200
vn -0.279600 -0.960100 -0.003100
vn -0.249200 -0.964000 -0.093300
vn -0.156600 -0.978100 -0.137300
vn 0.609600 0.763700 0.212500
vn 0.635900 0.744100 0.205100
vn 0.393900 0.915300 0.084500
vn 0.331300 0.943500 0.006200
vn 0.730600 -0.640000 0.238100
usemtl Material
s off
f 8//1 32//1 33//1
f 16//2 23//2 10//2
f 2//3 20//3 17//3
f 9//4 19//4 5//4
f 11//5 9//5 5//5
f 14//6 15//6 27//6
f 51//7 9//7 11//7
f 16//8 2//8 23//8
f 16//9 10//9 26//9
f 11//10 5//10 2//10
f 44//11 29//11 14//11
f 20//12 26//12 7//12
f 21//13 13//13 44//13
f 17//14 18//14 51//14
f 13//15 21//15 19//15
f 10//16 23//16 28//16
f 2//17 5//17 19//17
f 21//18 27//18 24//18
f 14//19 30//19 51//19
f 6//20 12//20 51//20
f 15//21 23//21 24//21
f 25//22 7//22 26//22
f 28//23 22//23 7//23
f 19//24 24//24 23//24
f 25//25 10//25 28//25
f 15//26 22//26 28//26
f 38//27 19//27 9//27
f 14//28 18//28 22//28
f 38//29 32//29 8//29
f 17//30 7//30 22//30
f 2//31 16//31 20//31
f 3//32 6//32 4//32
f 1//33 6//33 3//33
f 17//34 12//34 6//34
f 31//35 69//35 51//35
f 29//36 31//36 30//36
f 44//37 66//37 31//37
f 8//38 33//38 44//38
f 1//39 2//39 17//39
f 21//40 14//40 27//40
f 4//41 51//41 11//41
f 20//42 16//42 26//42
f 3//43 11//43 2//43
f 21//44 44//44 14//44
f 17//45 20//45 7//45
f 12//46 17//46 51//46
f 8//47 13//47 19//47
f 31//48 66//48 69//48
f 23//49 2//49 19//49
f 19//50 21//50 24//50
f 18//51 14//51 51//51
f 4//52 6//52 51//52
f 27//53 15//53 24//53
f 10//54 25//54 26//54
f 25//55 28//55 7//55
f 23//56 15//56 28//56
f 51//57 38//57 9//57
f 15//58 14//58 22//58
f 18//59 17//59 22//59
f 11//60 3//60 4//60
f 2//61 1//61 3//61
f 1//62 17//62 6//62
f 30//63 31//63 51//63
f 14//64 29//64 30//64
f 29//65 44//65 31//65
f 33//66 71//66 44//66
f 33//67 32//67 71//67
f 32//68 38//68 71//68
f 19//69 38//69 8//69
f 13//70 8//70 44//70
f 42//71 73//71 72//71
f 52//72 45//72 59//72
f 35//73 53//73 56//73
f 43//74 39//74 55//74
f 46//75 39//75 43//75
f 49//76 63//76 50//76
f 51//77 46//77 43//77
f 52//78 59//78 35//78
f 52//79 62//79 45//79
f 46//80 35//80 39//80
f 44//81 49//81 67//81
f 56//82 41//82 62//82
f 57//83 44//83 48//83
f 53//84 51//84 54//84
f 48//85 55//85 57//85
f 66//86 69//86 65//86
f 45//87 64//87 59//87
f 35//88 55//88 39//88
f 57//89 60//89 63//89
f 49//90 51//90 68//90
f 40//91 51//91 47//91
f 50//92 60//92 59//92
f 61//93 62//93 41//93
f 64//94 41//94 58//94
f 55//95 59//95 60//95
f 61//96 64//96 45//96
f 50//97 64//97 58//97
f 38//98 43//98 55//98
f 49//99 58//99 54//99
f 38//100 42//100 72//100
f 53//101 58//101 41//101
f 35//102 56//102 52//102
f 36//103 37//103 40//103
f 34//104 36//104 40//104
f 53//105 40//105 47//105
f 70//106 51//106 69//106
f 67//107 68//107 70//107
f 44//108 70//108 66//108
f 42//109 44//109 73//109
f 34//110 53//110 35//110
f 57//111 63//111 49//111
f 37//112 46//112 51//112
f 56//113 62//113 52//113
f 36//114 35//114 46//114
f 57//115 49//115 44//115
f 53//116 41//116 56//116
f 47//117 51//117 53//117
f 42//118 55//118 48//118
f 70//119 69//119 66//119
f 59//120 55//120 35//120
f 55//121 60//121 57//121
f 54//122 51//122 49//122
f 37//123 51//123 40//123
f 63//124 60//124 50//124
f 45//125 62//125 61//125
f 61//126 41//126 64//126
f 59//127 64//127 50//127
f 51//128 43//128 38//128
f 50//129 58//129 49//129
f 54//130 58//130 53//130
f 46//131 37//131 36//131
f 35//132 36//132 34//132
f 34//133 40//133 53//133
f 68//134 51//134 70//134
f 49//135 68//135 67//135
f 67//136 70//136 44//136
f 73//137 44//137 71//137
f 73//138 71//138 72//138
f 72//139 71//139 38//139
f 55//140 42//140 38//140
f 48//141 44//141 42//141
