# Blender v2.76 (sub 0) OBJ File: 'bug1.blend'
# www.blender.org
mtllib bug1.mtl
o Cube
v 2.776965 -0.068908 -0.365631
v -1.527556 -0.777780 -0.483280
v 1.008575 0.925300 -0.756341
v -0.832567 0.918446 -1.021878
v 0.090930 -0.892456 -0.972821
v 2.860927 0.262878 -0.573910
v -1.489702 0.126807 -1.430170
v -0.059530 0.940484 -0.959019
v 1.384644 0.013837 -1.939527
v 2.260553 0.655205 -0.941571
v 0.549426 0.919122 -1.020114
v 1.028804 0.152399 -1.193701
v 0.128847 0.507701 -1.526501
v 0.789001 0.537655 -1.105958
v -1.122433 0.528043 -1.370338
v -1.000000 0.916667 -0.551578
v -1.612164 0.223549 -0.612628
v -1.091825 0.521032 -0.724204
v 1.160146 -0.563926 -0.535219
v 0.199496 -0.949243 -0.468096
v 1.160996 -0.564812 -0.292489
v -0.616259 -0.895525 -0.996787
v -1.529029 -0.360040 -1.050265
v -0.630995 -0.051459 -4.145155
v -0.085523 -0.502814 -1.616067
v -0.593019 -0.480502 -1.532107
v -0.984079 0.737408 -1.201803
v -0.472167 0.985501 -1.013947
v -1.138221 0.051366 -1.841068
v 0.040853 0.782616 -1.283832
v 0.918386 0.265112 -1.810394
v -1.355591 0.355594 -1.439762
v -0.289551 -0.019749 -4.178247
v 2.594161 0.628902 -0.429584
v 3.031274 0.166391 -0.357853
v 2.776965 -0.068908 0.365631
v -1.527556 -0.777780 0.483280
v 1.008575 0.925300 0.756341
v -0.832567 0.918446 1.021878
v 2.948494 -0.112249 0.000000
v 0.090930 -0.892456 0.972821
v 2.860927 0.262878 0.573910
v -1.445497 -0.693118 0.000000
v -1.489702 0.126807 1.430170
v 1.835088 0.948385 0.000000
v -0.059530 0.940484 0.959019
v -0.833333 0.916667 0.000000
v 1.384644 0.013837 1.939527
v -1.612164 0.056882 0.000000
v 0.000766 1.001779 0.000000
v -0.095600 -0.899426 0.000000
v 2.260553 0.655205 0.941571
v 0.549426 0.919122 1.020114
v 1.028804 0.152399 1.193701
v 0.128847 0.507701 1.526501
v 0.789001 0.537655 1.105958
v -1.122433 0.528043 1.370338
v -1.000000 0.916667 0.551578
v -1.612164 0.223549 0.612628
v -1.122433 0.528043 0.000000
v -1.091825 0.521032 0.724204
v 1.160146 -0.563926 0.535219
v 1.161258 -0.565635 0.000000
v 0.199496 -0.949243 0.468096
v 1.160996 -0.564812 0.292489
v -0.616259 -0.895525 0.996787
v -1.529029 -0.360040 1.050265
v -0.630995 -0.051459 4.145155
v -0.085523 -0.502814 1.616067
v -0.593019 -0.480502 1.532107
v -0.984079 0.737408 1.201803
v -0.472167 0.985501 1.013947
v -1.138221 0.051366 1.841068
v 0.040853 0.782616 1.283832
v 0.918386 0.265112 1.810394
v -1.355591 0.355594 1.439762
v -0.289551 -0.019749 4.178247
v 2.594161 0.628902 0.429584
v 2.754510 0.604740 0.000000
v 3.135498 0.221357 0.000000
v 3.031274 0.166391 0.357853
vn -0.804100 0.588300 0.085100
vn -0.401100 -0.738000 -0.542700
vn -0.009800 0.978500 -0.206100
vn 0.328600 0.937700 0.112600
vn 0.455400 -0.555800 -0.695500
vn -0.993600 -0.092400 -0.065500
vn 0.308600 0.938800 -0.152900
vn 0.025200 0.997400 -0.067300
vn -0.101500 0.994300 0.031400
vn -0.150700 -0.985800 0.074800
vn 0.248100 -0.934300 0.255900
vn 0.183400 0.682900 -0.707100
vn 0.031200 0.659600 -0.751000
vn 0.319700 -0.339700 -0.884500
vn -0.498900 0.866500 -0.016400
vn -0.500900 0.865000 -0.029500
vn -0.779800 0.580100 0.235600
vn 0.372000 -0.928200 -0.004700
vn 0.239600 -0.944600 -0.224400
vn -0.736700 -0.378000 -0.560700
vn 0.075600 -0.983800 -0.162600
vn 0.021400 -0.852500 -0.522300
vn -0.850000 0.524700 0.046000
vn -0.885500 0.342500 -0.314000
vn -0.388700 -0.719900 -0.575000
vn 0.151300 0.906600 -0.393900
vn -0.089200 0.642900 -0.760700
vn 0.386100 0.871700 -0.301900
vn -0.108000 0.978200 -0.177500
vn -0.672400 0.367200 -0.642600
vn -0.082800 0.657500 -0.748900
vn -0.298900 0.675500 -0.674000
vn 0.212300 0.951500 -0.222700
vn -0.087300 0.709500 -0.699300
vn -0.125300 0.750100 -0.649300
vn -0.943900 0.247400 -0.218800
vn 0.462000 0.460300 -0.758100
vn 0.488500 0.869600 0.071500
vn 0.284700 -0.619900 -0.731200
vn 0.254100 -0.559500 -0.788900
vn 0.569700 -0.624300 -0.534500
vn 0.377500 -0.861300 0.340100
vn -0.956500 -0.212600 0.199700
vn -0.995900 -0.087200 -0.023700
vn -0.989000 -0.032700 -0.144300
vn 0.174500 0.959800 -0.220000
vn 0.029000 0.997600 -0.062200
vn 0.028400 0.997400 -0.065500
vn 0.117500 0.990600 -0.070700
vn -0.181300 0.981500 -0.060800
vn -0.102500 0.994200 0.031000
vn 0.008200 -0.993500 -0.113500
vn -0.095200 -0.994400 0.045800
vn -0.027400 -0.983800 0.177000
vn 0.371700 -0.928300 -0.002900
vn -0.012700 0.897800 -0.440300
vn 0.461900 0.460700 -0.757900
vn 0.440000 0.451100 -0.776500
vn 0.085400 0.271500 -0.958600
vn -0.851100 0.491100 -0.185600
vn -0.601400 0.798100 0.037100
vn -0.680400 0.707200 0.192400
vn -0.968900 0.243800 -0.043300
vn 0.355400 -0.917300 -0.179600
vn 0.293200 -0.956000 -0.004500
vn 0.293300 -0.956000 -0.003000
vn -0.660600 -0.742300 -0.112300
vn -0.386200 -0.726200 -0.568700
vn 0.285500 -0.937400 -0.199500
vn -0.072800 -0.981100 -0.179200
vn -0.135300 -0.780200 -0.610700
vn 0.705200 0.658900 -0.261700
vn 0.349000 0.933900 -0.077800
vn 0.737200 0.631800 -0.239600
vn 0.523500 -0.544100 -0.655700
vn 0.660000 0.637700 -0.397300
vn 0.858700 -0.481300 -0.176200
vn 0.676600 0.672300 -0.300300
vn 0.635000 -0.673800 -0.377800
vn -0.804100 0.588300 -0.085100
vn -0.401100 -0.738000 0.542700
vn -0.009800 0.978500 0.206100
vn 0.328600 0.937700 -0.112600
vn 0.455400 -0.555800 0.695500
vn -0.993600 -0.092400 0.065500
vn 0.308600 0.938800 0.152900
vn 0.025200 0.997400 0.067300
vn -0.101500 0.994300 -0.031400
vn -0.150700 -0.985800 -0.074800
vn 0.248100 -0.934300 -0.255900
vn 0.183400 0.682900 0.707100
vn 0.031200 0.659600 0.751000
vn 0.319700 -0.339700 0.884500
vn -0.498900 0.866500 0.016400
vn -0.500900 0.865000 0.029500
vn -0.779800 0.580100 -0.235600
vn 0.372000 -0.928200 0.004700
vn 0.239600 -0.944600 0.224400
vn -0.736700 -0.378000 0.560700
vn 0.075600 -0.983800 0.162600
vn 0.021400 -0.852500 0.522300
vn -0.850000 0.524700 -0.046000
vn -0.885500 0.342500 0.314000
vn -0.388700 -0.719900 0.575000
vn 0.151300 0.906600 0.393900
vn -0.089200 0.642900 0.760700
vn 0.386100 0.871700 0.301900
vn -0.108000 0.978200 0.177500
vn -0.672400 0.367200 0.642600
vn -0.082800 0.657500 0.748900
vn -0.298900 0.675500 0.674000
vn 0.212300 0.951500 0.222700
vn -0.087300 0.709500 0.699300
vn -0.125300 0.750100 0.649300
vn -0.943900 0.247400 0.218800
vn 0.462000 0.460300 0.758100
vn 0.488500 0.869600 -0.071500
vn 0.284700 -0.619900 0.731200
vn 0.254100 -0.559500 0.788900
vn 0.569700 -0.624300 0.534500
vn 0.377500 -0.861300 -0.340100
vn -0.956500 -0.212600 -0.199700
vn -0.995900 -0.087200 0.023700
vn -0.989000 -0.032700 0.144300
vn 0.174500 0.959800 0.220000
vn 0.029000 0.997600 0.062200
vn 0.028400 0.997400 0.065500
vn 0.117500 0.990600 0.070700
vn -0.181300 0.981500 0.060800
vn -0.102500 0.994200 -0.031000
vn 0.008200 -0.993500 0.113500
vn -0.095200 -0.994400 -0.045800
vn -0.027400 -0.983800 -0.177000
vn 0.371700 -0.928300 0.002900
vn -0.012700 0.897800 0.440300
vn 0.461900 0.460700 0.757900
vn 0.440000 0.451100 0.776500
vn 0.085400 0.271500 0.958600
vn -0.851100 0.491100 0.185600
vn -0.601400 0.798100 -0.037100
vn -0.680400 0.707200 -0.192400
vn -0.968900 0.243800 0.043300
vn 0.355400 -0.917300 0.179600
vn 0.293200 -0.956000 0.004500
vn 0.293300 -0.956000 0.003000
vn -0.660600 -0.742300 0.112300
vn -0.386200 -0.726200 0.568700
vn 0.285500 -0.937400 0.199500
vn -0.072800 -0.981100 0.179200
vn -0.135300 -0.780200 0.610700
vn 0.705200 0.658900 0.261700
vn 0.349000 0.933900 0.077800
vn 0.737200 0.631800 0.239600
vn 0.523500 -0.544100 0.655700
vn 0.660000 0.637700 0.397300
vn 0.858700 -0.481300 0.176200
vn 0.676600 0.672300 0.300300
vn 0.635000 -0.673800 0.377800
usemtl Material
s off
f 4//1 27//1 18//1
f 22//2 2//2 23//2
f 24//3 15//3 13//3
f 12//4 31//4 13//4
f 19//5 5//5 12//5
f 17//6 23//6 2//6
f 10//7 45//7 34//7
f 11//8 50//8 3//8
f 28//9 47//9 50//9
f 51//10 43//10 22//10
f 63//11 51//11 20//11
f 13//12 30//12 11//12
f 3//13 10//13 14//13
f 10//14 6//14 12//14
f 18//15 32//15 17//15
f 60//16 18//16 17//16
f 60//17 47//17 16//17
f 19//18 21//18 20//18
f 40//19 63//19 1//19
f 23//20 7//20 29//20
f 26//21 24//21 33//21
f 25//22 5//22 22//22
f 15//23 18//23 27//23
f 16//24 4//24 18//24
f 26//25 22//25 23//25
f 28//26 8//26 30//26
f 30//27 13//27 27//27
f 31//28 9//28 33//28
f 33//29 24//29 13//29
f 29//30 7//30 32//30
f 15//31 27//31 13//31
f 29//32 32//32 15//32
f 31//33 33//33 13//33
f 28//34 30//34 27//34
f 27//35 4//35 28//35
f 24//36 29//36 15//36
f 13//37 14//37 12//37
f 12//38 9//38 31//38
f 12//39 6//39 19//39
f 1//40 19//40 6//40
f 5//41 25//41 12//41
f 9//42 12//42 25//42
f 2//43 43//43 49//43
f 49//44 17//44 2//44
f 7//45 23//45 17//45
f 10//46 3//46 45//46
f 45//47 3//47 50//47
f 11//48 8//48 50//48
f 50//49 8//49 28//49
f 28//50 4//50 16//50
f 16//51 47//51 28//51
f 22//52 5//52 20//52
f 20//53 51//53 22//53
f 43//54 2//54 22//54
f 21//55 63//55 20//55
f 8//56 11//56 30//56
f 14//57 13//57 11//57
f 11//58 3//58 14//58
f 14//59 10//59 12//59
f 7//60 17//60 32//60
f 18//61 15//61 32//61
f 49//62 60//62 17//62
f 18//63 60//63 16//63
f 5//64 19//64 20//64
f 19//65 1//65 21//65
f 21//66 1//66 63//66
f 29//67 24//67 26//67
f 26//68 23//68 29//68
f 33//69 9//69 25//69
f 25//70 26//70 33//70
f 26//71 25//71 22//71
f 35//72 6//72 79//72
f 45//73 79//73 34//73
f 34//74 79//74 6//74
f 6//75 35//75 1//75
f 6//76 10//76 34//76
f 35//77 80//77 40//77
f 79//78 80//78 35//78
f 40//79 1//79 35//79
f 39//80 61//80 71//80
f 66//81 67//81 37//81
f 68//82 55//82 57//82
f 54//83 55//83 75//83
f 62//84 54//84 41//84
f 59//85 37//85 67//85
f 52//86 78//86 45//86
f 53//87 38//87 50//87
f 72//88 50//88 47//88
f 51//89 66//89 43//89
f 63//90 64//90 51//90
f 55//91 53//91 74//91
f 38//92 56//92 52//92
f 52//93 54//93 42//93
f 61//94 59//94 76//94
f 60//95 59//95 61//95
f 60//96 58//96 47//96
f 62//97 64//97 65//97
f 40//98 36//98 63//98
f 67//99 73//99 44//99
f 70//100 77//100 68//100
f 69//101 66//101 41//101
f 57//102 71//102 61//102
f 58//103 61//103 39//103
f 70//104 67//104 66//104
f 72//105 74//105 46//105
f 74//106 71//106 55//106
f 75//107 77//107 48//107
f 77//108 55//108 68//108
f 73//109 76//109 44//109
f 57//110 55//110 71//110
f 73//111 57//111 76//111
f 75//112 55//112 77//112
f 72//113 71//113 74//113
f 71//114 72//114 39//114
f 68//115 57//115 73//115
f 55//116 54//116 56//116
f 54//117 75//117 48//117
f 54//118 62//118 42//118
f 36//119 42//119 62//119
f 41//120 54//120 69//120
f 48//121 69//121 54//121
f 37//122 49//122 43//122
f 49//123 37//123 59//123
f 44//124 59//124 67//124
f 52//125 45//125 38//125
f 45//126 50//126 38//126
f 53//127 50//127 46//127
f 50//128 72//128 46//128
f 72//129 58//129 39//129
f 58//130 72//130 47//130
f 66//131 64//131 41//131
f 64//132 66//132 51//132
f 43//133 66//133 37//133
f 65//134 64//134 63//134
f 46//135 74//135 53//135
f 56//136 53//136 55//136
f 53//137 56//137 38//137
f 56//138 54//138 52//138
f 44//139 76//139 59//139
f 61//140 76//140 57//140
f 49//141 59//141 60//141
f 61//142 58//142 60//142
f 41//143 64//143 62//143
f 62//144 65//144 36//144
f 65//145 63//145 36//145
f 73//146 70//146 68//146
f 70//147 73//147 67//147
f 77//148 69//148 48//148
f 69//149 77//149 70//149
f 70//150 66//150 69//150
f 81//151 79//151 42//151
f 45//152 78//152 79//152
f 78//153 42//153 79//153
f 42//154 36//154 81//154
f 42//155 78//155 52//155
f 81//156 40//156 80//156
f 79//157 81//157 80//157
f 40//158 81//158 36//158
